<svg xmlns="http://www.w3.org/2000/svg" width="39.97" height="22.969" viewBox="0 0 39.97 22.969">
  <defs>
    <style>
      .cls-1 {
        fill: #fff;
        fill-rule: evenodd;
      }
    </style>
  </defs>
  <path id="Path" class="cls-1" d="M1500.23,867.2a1.05,1.05,0,0,1-1.07,1.03h-35.43l9.17,8.848a1.015,1.015,0,0,1,0,1.46,1.094,1.094,0,0,1-1.51,0l-10.85-10.468a1,1,0,0,1,0-1.455l10.85-10.472a1.094,1.094,0,0,1,1.51,0,1.017,1.017,0,0,1,0,1.457l-8.88,8.572h35.14A1.049,1.049,0,0,1,1500.23,867.2Z" transform="translate(-1460.25 -855.875)"/>
</svg>
