<svg xmlns="http://www.w3.org/2000/svg" width="40.03" height="22.969" viewBox="0 0 40.03 22.969">
  <defs>
    <style>
      .cls-1 {
        fill: #fff;
        fill-rule: evenodd;
      }
    </style>
  </defs>
  <path id="Path" class="cls-1" d="M1551.23,867.2a1.041,1.041,0,0,0,1.06,1.03h35.44l-9.17,8.848a1.015,1.015,0,0,0,0,1.46,1.094,1.094,0,0,0,1.51,0l10.84-10.468a1,1,0,0,0,0-1.455l-10.84-10.472a1.094,1.094,0,0,0-1.51,0,1,1,0,0,0,0,1.457l8.88,8.572h-35.15A1.041,1.041,0,0,0,1551.23,867.2Z" transform="translate(-1551.22 -855.875)"/>
</svg>
