<svg xmlns="http://www.w3.org/2000/svg" width="14.781" height="11.97" viewBox="0 0 14.781 11.97">
  <defs>
    <style>
      .cls-1 {
        fill: #fff;
        fill-rule: evenodd;
      }
    </style>
  </defs>
  <path id="Path" class="cls-1" d="M830.888,5314.88a6,6,0,0,1-1.743.47,3,3,0,0,0,1.334-1.67,6.088,6.088,0,0,1-1.926.73,3.042,3.042,0,0,0-5.251,2.07,2.99,2.99,0,0,0,.079.69,8.6,8.6,0,0,1-6.255-3.16,3.024,3.024,0,0,0,.938,4.04,2.92,2.92,0,0,1-1.374-.38v0.04a3.033,3.033,0,0,0,2.434,2.97,3.007,3.007,0,0,1-.8.1,3.556,3.556,0,0,1-.571-0.05,3.032,3.032,0,0,0,2.834,2.1,6.11,6.11,0,0,1-3.769,1.3,5.762,5.762,0,0,1-.723-0.05,8.635,8.635,0,0,0,13.287-7.25c0-.13,0-0.26-0.009-0.39A6.168,6.168,0,0,0,830.888,5314.88Z" transform="translate(-816.094 -5313.47)"/>
</svg>
