<svg xmlns="http://www.w3.org/2000/svg" width="14.624" height="14.59" viewBox="0 0 14.624 14.59">
  <defs>
    <style>
      .cls-1 {
        fill: #fff;
        fill-rule: evenodd;
      }
    </style>
  </defs>
  <path id="Composite_Path" data-name="Composite Path" class="cls-1" d="M818.061,5272.16h10.863a1.884,1.884,0,0,1,1.875,1.87v10.84a1.875,1.875,0,0,1-1.875,1.86H818.061a1.875,1.875,0,0,1-1.876-1.86v-10.84A1.884,1.884,0,0,1,818.061,5272.16Zm8.77,1.62a0.662,0.662,0,0,0-.658.66v1.57a0.662,0.662,0,0,0,.658.66h1.652a0.663,0.663,0,0,0,.658-0.66v-1.57a0.663,0.663,0,0,0-.658-0.66h-1.652Zm2.316,4.55h-1.286a4.181,4.181,0,0,1,.188,1.25,4.546,4.546,0,0,1-9.086,0,4.213,4.213,0,0,1,.188-1.25H817.81v6.15a0.581,0.581,0,0,0,.58.58h10.176a0.581,0.581,0,0,0,.581-0.58v-6.15Zm-5.641-1.75a2.837,2.837,0,1,0,2.935,2.84A2.888,2.888,0,0,0,823.506,5276.58Z" transform="translate(-816.188 -5272.16)"/>
</svg>
